<svg xmlns="http://www.w3.org/2000/svg" viewBox="0 0 764.48 132.37"><defs><style>.cls-1{fill:none;}.cls-2{fill:#00abeb;}.cls-3{fill:#005ead;}</style></defs><title>アセット 1</title><g id="レイヤー_2" data-name="レイヤー 2"><g id="LOGODATA"><rect class="cls-1" x="316.05" y="-316.05" width="132.37" height="764.48" transform="translate(448.43 -316.05) rotate(90)"/><path d="M418.5,48.82c-.61-1.8-1.54-4.68-1.89-5.76l-.1-.32a2.1,2.1,0,0,0-2.11-1.47h-6.46a1.27,1.27,0,0,0-1.15.5,1.31,1.31,0,0,0-.16,1.2c.16.5,1.47,4.41,2.18,6.4a2.25,2.25,0,0,0,2.38,1.45H417c.92,0,1.28-.27,1.47-.54a1.52,1.52,0,0,0,.08-1.45"/><path d="M403.79,42.69a2.05,2.05,0,0,0-2.09-1.4h-6.46a1.25,1.25,0,0,0-1.15.49,1.33,1.33,0,0,0-.16,1.21c.17.52,1.47,4.43,2.18,6.4a2.23,2.23,0,0,0,2.38,1.45h5.8a1.64,1.64,0,0,0,1.44-.53,1.48,1.48,0,0,0,.1-1.46c-.71-2.13-1.92-5.76-2-6.15"/><path class="cls-2" d="M156.22,93.92a7.83,7.83,0,1,1-7.84-7.82,7.83,7.83,0,0,1,7.84,7.82"/><path class="cls-2" d="M160.9,38.3a5.79,5.79,0,0,0-3.41-7.83c-3.24-1.18-6.42.62-8.08,3.58-2.7,4.8-16.67,31.27-19,35.66s-5.3,10.66-7.75,9.71c-2.25-.88-4.91-10.5-6-13.25-2-4.88-6.1-10.68-12.91-9.2-5.21,1.12-8.18,5.22-12.89,14.26-2.59,5-4.21,8.24-6.57,11.46-4.84,6.6-7.57-4.25-9.16-9.86C72.93,65.3,69,54.65,60.48,54.66c-4.78,0-9.86,2.8-16.19,13C40.6,73.69,32,90.42,30.68,93.4a5.87,5.87,0,0,0,3,8c3.18,1.35,6.29-.06,8.16-3C47.89,89,49.55,85.31,52.66,81,56,76.36,60.5,72.22,64,83.31c2.18,7,6,18.42,16.22,18.49,6.17,0,12.55-5.28,15.53-10.35,3.38-5.74,4.22-8.81,6.8-11.57,1.31-1.41,3.26-1.92,5.11,2.17s5.48,16.49,12,19.22c9.28,3.85,18-14.92,21-20.9,2.44-4.83,19.14-39.53,20.21-42.07"/><path d="M236.34,43.64a2.77,2.77,0,0,0-2-.7h0L177.92,43a1.93,1.93,0,0,0-1.47.67A2,2,0,0,0,176,45v7.14a2,2,0,0,0,1.95,1.91h.32l41.13,0H221c1.2,0,1.53.21,1.81.58.62.82,0,2.12-.11,2.42a34.56,34.56,0,0,1-17.22,22l-.48.25-.32-.44c-2.1-2.88-3.68-4.87-5.5-7.17l-.26-.34a3.54,3.54,0,0,0-2.54-1.55h0l-9.53,0a1.31,1.31,0,0,0-1.31.83,1.59,1.59,0,0,0,.14,1.48,215.32,215.32,0,0,1,18.77,28.44,2.35,2.35,0,0,0,2.13,1.26H217a1.24,1.24,0,0,0,1.15-.75,1.4,1.4,0,0,0,0-1.39A84.13,84.13,0,0,0,212.27,90l-.35-.52.51-.35c12.07-8.49,23.36-19.3,24.43-43.77a2.25,2.25,0,0,0-.52-1.71"/><path d="M294.35,42.82a1.92,1.92,0,0,0-1.53-.66l-9.36.05a2.67,2.67,0,0,0-2.23,1.48C275.87,56,260.33,65.21,239,68.78c-1.38.27-2,1.08-2.07,2v7.38a1.84,1.84,0,0,0,.62,1.42,2.18,2.18,0,0,0,1.73.53c10.33-1.26,18.28-3.31,24.56-6.2l.89-.41,0,26.22a2,2,0,0,0,2,2h8.06a1.94,1.94,0,0,0,1.86-1.83l-.05-32,.28-.19C285,62.19,292,53.18,294.69,44.38a1.85,1.85,0,0,0-.34-1.56"/><path d="M337.53,68.37l0-.59,18,0a2,2,0,0,0,1.39-.59,2.13,2.13,0,0,0,.56-1.33l0-7.11a1.93,1.93,0,0,0-2-2H337.65V44.06a2,2,0,0,0-2.05-2h-8a1.89,1.89,0,0,0-1.42.62,2,2,0,0,0-.52,1.33v12.7l-27.05,0a2,2,0,0,0-2,2l0,7.14a1.93,1.93,0,0,0,2,1.89h.26l26.72,0,0,.67c-.95,15.48-8.37,19.89-22.32,22.75-1.21.29-1.9.88-1.9,1.94v7.36a1.64,1.64,0,0,0,.62,1.32,2.1,2.1,0,0,0,1.47.47c23.36-3.23,32.88-13,34.08-33.93"/><path d="M417.56,57.19a2,2,0,0,0-1.28-.53H416l-39.13.06,0-12.67a2,2,0,0,0-.56-1.42,2,2,0,0,0-1.51-.6h-7.54a2,2,0,0,0-1.94,2l.06,42.47c0,10.57,4.17,15,15.78,15H382l35.27-.06a2,2,0,0,0,1.82-1.91V92.3a2,2,0,0,0-2-2h0l-32.22,0h0c-2.93,0-5.08-.19-6.34-1.22-1.57-1.31-1.72-3.2-1.69-6.15l0-15.27,39.35-.06a2,2,0,0,0,2-2V58.6a1.88,1.88,0,0,0-.59-1.41"/><path class="cls-3" d="M472.86,61.77c3.92,0,5.37,1.93,5.37,4.73,0,2-2.09,16.83-14.41,26.56-8.55,6.72-20.05,8.93-21.77,8.93a3.46,3.46,0,0,1-3.55-3.71c0-2.31,1-2.58,5-3.61,8.87-2.15,18.07-5.75,23.66-16.66,1.4-2.8,3.06-7.26,3.06-8.66,0-1-.7-1-2-1H452.32c-2.69,3.65-9.47,11.18-13.12,11.18a3.74,3.74,0,0,1-3.5-3.6c0-1.45.43-1.72,2.9-3.6a43.06,43.06,0,0,0,11.24-13.07c1.94-4,2.37-4.89,4.63-4.89,1.61,0,3.82.86,3.82,2.79,0,1-.27,1.88-1.72,4.63Z"/><path class="cls-3" d="M498.19,82.52c0,1.67-.54,3.44-3.72,3.44-2.41,0-3.81-.86-3.81-3.44V59.13c0-1.66.54-3.44,3.71-3.44,2.42,0,3.82.86,3.82,3.44Zm27.47-3.81c0,6.18-.91,16.88-17.26,21.4a39.84,39.84,0,0,1-10.11,1.45c-.8,0-4.14,0-4.14-3.71,0-2.91,1.78-3.07,5.38-3.45,8.55-.8,12.64-2.52,15.49-5.8s3.06-6.35,3.06-9.68V58.49c0-1.67.54-3.5,3.77-3.5,2.36,0,3.81.92,3.81,3.5Z"/><path class="cls-3" d="M578.63,91c1,0,3.71,0,3.71,3.49,0,3.23-2.26,3.5-3.71,3.5H538.78c-1,0-3.66,0-3.66-3.5,0-3.33,2.42-3.49,3.66-3.49H555V65.75H541.74c-1,0-3.66,0-3.66-3.45s2.42-3.54,3.66-3.54h34c1,0,3.66.05,3.66,3.49,0,3.28-2.26,3.5-3.66,3.5H562.39V91Z"/><path class="cls-3" d="M615.41,98.76c0,1.4-.27,3.55-3.77,3.55-2.63,0-3.82-1.13-3.82-3.55v-23c-7.2,3.55-16.5,6.83-19.14,6.83-3,0-3.55-2.85-3.55-4,0-2.25,1.4-2.69,3.07-3.12,14.19-3.76,26.08-10.86,30.7-14.84l5.54-4.78c1.45-1.24,2.1-1.4,2.8-1.4a4.11,4.11,0,0,1,4,3.87c0,1.13-.38,1.94-1.67,3.12a82.41,82.41,0,0,1-14.19,10.27Z"/><path class="cls-3" d="M655.36,67.09c-3.28,4.36-11.13,12.47-14.63,12.47a3.85,3.85,0,0,1-3.44-3.6c0-1.29.81-2,2.21-3a38.47,38.47,0,0,0,13.22-15c1.62-3,2-3.82,4.14-3.82,1.4,0,4,.76,4,2.9a9.73,9.73,0,0,1-1.23,3.5h15.91c3.18,0,5.38,1.24,5.38,4.52,0,2.2-2.31,17.47-14.41,27.15-9.09,7.26-21,9.63-22.37,9.63a3.51,3.51,0,0,1-3.49-3.71c0-2.32,1.29-2.64,3.65-3.29,6.51-1.71,12.75-3.33,18.77-8.54-3.71-3.12-4.63-3.66-10.27-7.05-1.72-1-2.48-1.88-2.48-3.06A3.62,3.62,0,0,1,653.69,73c1.35,0,2.64.48,5.7,2.26a47.85,47.85,0,0,1,8.34,5.7c3.55-5.32,5.37-11.61,5.37-12.74s-.7-1.08-2-1.08Z"/><path class="cls-3" d="M690.36,82c-1.18,0-4,0-4-3.65,0-3.5,2.42-3.71,4-3.71h40c1.13,0,4,0,4,3.65s-2.53,3.71-4,3.71Z"/></g></g></svg>